<svg id="Layer_1" data-name="Layer 1" xmlns="http://www.w3.org/2000/svg" viewBox="0 0 257.43 334.63"><defs><style>.cls-1{fill:#2eac52;}.cls-2{fill:#fff;}.cls-3{fill:#231f20;}</style></defs><title>tnm-logo-green-curve</title><path class="cls-1" d="M0,334.63,219.34,202.8s85.71-51.51,0-103L53.36,0H0Z"/><path class="cls-2" d="M75.41,85.15,76,83.9l1.48.2-.28,1.68ZM70.26,96.77c1.73-4,3.47-7.8,5.15-11.62l3.52,1.25C77.25,90.22,75.54,94.07,73.8,98ZM65,108.69c1.79-4,3.55-8,5.29-11.92L73.8,98q-2.62,5.88-5.3,11.94ZM57.2,126.31c3.08-7,6.1-13.82,7.77-17.62l3.53,1.24c-3.38,7.69-5.56,12.6-7.76,17.63Zm-3.72,8.44c1.23-2.84,2.49-5.64,3.72-8.44l3.54,1.25c-1.24,2.77-2.47,5.57-3.73,8.43Zm.93,2.16-1.6-.7.67-1.46,1.77.61Zm2.91,1.25-2.91-1.25,1.65-3.07c.95.39,1.93.82,2.91,1.24Zm29.49,12.72c-10.87-4.7-20.66-8.93-29.49-12.72L59,135.08c8.83,3.83,18.62,8,29.49,12.72Zm22,9.52-22-9.52,1.65-3.08,22,9.53Zm25.31,10.95L108.81,160.4l1.66-3.07c7.86,3.39,16.27,7,25.3,11Zm2.66-1.13-.56,2.06-2.1-.93.82-1.53ZM142.31,150c-1.82,6.59-3.63,13.33-5.53,20.26l-3.69-.79q2.81-10.4,5.51-20.28Zm5.24-19.29Q145,140.06,142.31,150l-3.71-.81c1.78-6.57,3.55-13,5.26-19.29Zm4.78-17.56c-1.57,5.73-3.17,11.57-4.78,17.56l-3.69-.81q2.41-9,4.78-17.55Zm4.58-16.79c-1.51,5.47-3,11.07-4.58,16.79l-3.69-.8c1.54-5.72,3.08-11.32,4.55-16.77Zm-1.59-2.08,2.07.28-.48,1.8L155,95.94ZM122.77,90c10,1.28,20.78,2.7,32.55,4.22l-.54,3.38c-11.76-1.55-22.59-2.94-32.54-4.25Zm-12.86-1.7c4.12.55,8.42,1.1,12.86,1.7l-.53,3.35c-4.47-.57-8.75-1.15-12.86-1.67ZM92.24,86l17.67,2.3-.53,3.38c-6.2-.8-12.08-1.59-17.67-2.31ZM77.45,84.1,92.24,86l-.53,3.37-14.8-1.94Z"/><path class="cls-2" d="M105.88,97l-1.56.12-.12,0-.42.1-.22,0a3.87,3.87,0,0,1-1-.4l-1.85-.3a95,95,0,0,0-14.65.7,84.36,84.36,0,0,0-11.93,2.45c-1.86.68-3.67,1.35-5.49,2,.22.43.28.43.81.76l.67,0c3.41-.25,6.82-.67,10.58-.75-2.28.38-4.51.73-6.66,1.08a13.6,13.6,0,0,0-1.32.44c-.54.13-1,.23-1.51.33s-.86.08-1.12.32c.26.35.54.68.81,1,.28.1.61.19.93.32a4.4,4.4,0,0,0,2-.2l1.13-.14c-.06.14-.17.19-.34.31a1.22,1.22,0,0,0-.2.28l.15.14a7.12,7.12,0,0,0,2.12.41c.72,0,1.45.11,2.21.12s1.48.08,2.23.11c4.14.07,8.39,0,12.8,0,.2,0,.4,0,.59,0,1.21.18,2.41.4,3.61.67l2.24.56c-3.41.07-6.71.12-10,.2-.89-.1-1.67-.2-2.57-.33-2.8,0-5.53-.09-8.22-.15l-.22.13.58.15c2.18.14,4.4.17,6.69.32,1.84.1,3.72.23,5.65.33l1.56-.08c4,.13,7.83,1.23,12,2.2v-5.4l-1.4,0a9.75,9.75,0,0,0-1.89-.39h-.53l-.82.06c-1.54,0-3-.13-4.58-.24-.9-.07-1.8-.15-2.7-.19.71-.1,1.41-.23,2.1-.31l.12,0,9.7.1v-3.56c-1.62,0-3.18,0-4.74,0a3.91,3.91,0,0,1-.43-.8l.12.07a11.08,11.08,0,0,0,2.06.13c.59,0,1.17,0,1.8,0h1.19Zm0-2.31c-.44,0-.86,0-1.28,0a1.61,1.61,0,0,0-.62.1l0,0,.07.1.13.11a5.72,5.72,0,0,0,1.74.24Zm6.63,10.18v.34c-1,0-1.87-.07-2.83-.1l-.44-.36h0c.5,0,1,0,1.5,0l1.74.08m-6.63,5.47.22.07q.51.09,1,.21c.33.07.66.15,1,.2s.67.14,1,.19.66.13,1,.18.66.12,1,.17l1,.16a2.44,2.44,0,0,0,.39,0v-5.94c-.45,0-.87,0-1.31,0h-.65a1,1,0,0,0-.28,0,1.5,1.5,0,0,1-.53-.49l-.06,0c-1.28-.07-2.54-.12-3.8-.17Zm6.63-13.6c-1.87.05-3.72.1-5.54.18l-1.09.08v2.67c1.29,0,2.6,0,4,0-.26,0-1.13.18-.56.33s1.17.28,1.75.4c-1.72,0-3.46,0-5.14,0v3.56c1.49,0,3,0,4.53,0,.7,0,1.4,0,2.1,0Zm0-1.92c-.23,0-.42,0-.64,0h-.34q-2.43-.11-4.77-.15h-.88v.65a1.31,1.31,0,0,0,.34,0c2.06,0,4.16.1,6.29.17Zm0,10.39v-.34c.39,0,.81,0,1.2,0l0,0c.67.15,1.38.27,2.08.42l-3.26-.15m13.95,9.36,2.35,1.35a6.71,6.71,0,0,0,2.57-.6l1.57-.18a26.57,26.57,0,0,1,3.05.75c1.26.33,2.6.47,3.93.7.84,0,1.68-.13,2.56-.21.13,0,.27,0,.45,0,1.36-.44,2.76-.92,4.13-1.37,1.17-.77,1.81-1.55.76-2.7-.51-.2-1-.43-1.5-.63a3.2,3.2,0,0,1-.41-.07,25.55,25.55,0,0,0-4,.3l-.31-.23c-.39-.28,0-.55,0-.79s0-.28-.06-.43-.14-.25-.42-.42c-.58.07-1.15.17-1.71.27-6.12-.46-12-.87-17.64-1.31-.52-.22-1.06-.41-1.56-.65l-1.85-.32c-.34-.07-.67-.07-1-.15a2.61,2.61,0,0,1-.5-.2c.17-.22.5-.24,1-.36,4,.47,8.07,1,12.33,1.41.47.23,1,.46,1.48.68s.81.2,1.22.32c2.52,0,4.34-.8,6.64-.82,2.66,0,5.36.45,8.13.68.62,0,1.24.12,1.87.19,1.85-.19,4.59-1.4,3.84-2.37-.65,0-1.29,0-1.94,0-1,0-2,.08-2.9.08-.65-.28-.65-.5-.78-.8-.26-.63-.54-1.24-.76-1.8a7.93,7.93,0,0,1-.36-.71c.55.08,1.17.46,1.73.59s1,.27,1.57.36a7.78,7.78,0,0,0,1.9.1c1.28-.64,2.59-1.32,3.91-2a3.85,3.85,0,0,1,3.19-1.67c.67,0,1.34.12,2,.17h.48c.7-.23,1.11-.55,1.15-.95s-.17-.6-.26-.92c-2.51.1-5,.2-7.43.32-2.84.21-5.6.46-8.47.5a3.74,3.74,0,0,1-.67-.1,4.51,4.51,0,0,1-.45-.75c-.09-.07-.26-.2-.28-.3s.16,0,.28,0c.38,0,.77,0,1.16.06,3.11-1,6.28-2.11,9.46-3.18-.08-.27-.16-.55-.22-.85-.39-.2-.79-.42-1.14-.63-6.3-1-11.72.71-17.46.26L135,95c-4.16-.24-7.83.16-11.78-.07-.64-.1-1.25-.17-1.86-.25L120,94.47a60.52,60.52,0,0,0-7.52.35v.72l10.07.27,1.15.39-.26.17c-2.32.22-4.89.2-7.3.27-1.23,0-2.46,0-3.66.1V104l13.84.15c-2.07,0-4.11,0-6.13.1s-5.22.07-6.51.7c.39,0,.81,0,1.23,0s.67,0,1,0l.94.07c.43,0,.88.07,1.29.1l.35.08a12.68,12.68,0,0,1-2.64.27l-3.38.09v5.94a3.68,3.68,0,0,1,.61.1l1,.11,1.9.24c3.8,1.09,7.74,2.27,11.83,3.47-.43-.33-1-.63-1.43-.92"/><path class="cls-2" d="M157.94,104.32l-.23-.13c.8-.2,1.57-.42,2.36-.65a15.65,15.65,0,0,0,2.4-.32c.17-.08.37-.15.56-.23s.56-.25.85-.4a1.43,1.43,0,0,1,.43-.08l.15.11c-.5.52-1,1-1.51,1.54a1.89,1.89,0,0,1-.31.1c-.71.18-1.37.33-2.06.49a5.31,5.31,0,0,1-2.07.17,8,8,0,0,0-.57-.6"/><path class="cls-2" d="M152.8,106.11l1.59-.62.12.2c-.15.18-.26.38-.4.55a1.42,1.42,0,0,1-.88.4c-.15-.17-.3-.35-.43-.53"/><path class="cls-2" d="M111.84,99.56c.19,0,.38,0,.59,0,1.78.13,3.58.35,5.41.53.48,0,1,0,1.46.1s.92,0,1.37,0c1.87.06,3.72,0,5.65,0,.31,0,.62,0,1,.05,3.66.28,7.44.54,11.3.85h-.2c-.36,0-.76-.06-1.15-.06-5.33-.15-10.45-.12-15.32,0-.45,0-.87,0-1.31,0h-1.34c-.45,0-.87,0-1.31,0l-1.29-.07-1.23-.08-1.18-.07c-.36,0-.75-.08-1.12-.09s-.67-.09-1-.13a10.4,10.4,0,0,1-1.12-.3c-.1-.13-.14-.2-.06-.27a9.3,9.3,0,0,1,.9-.59"/><path class="cls-2" d="M95.2,99.12c-.41,0-.81,0-1.2.09l-1.17.09c-1.88,0-3.72,0-5.57,0-2,0-4,0-5.92.07-.48,0-1,.07-1.46.1l-.7.07c-.33.13-.66.26-1,.37s-.29.31-.12.51l.21.1a4,4,0,0,0,.69,0,3.25,3.25,0,0,1,.59,0,4.16,4.16,0,0,1,.64,0c1.31-.08,2.63-.08,4,0h6.93c.26,0,.48,0,.72,0s.46,0,.68,0c1.53-.1,3-.22,4.56-.38l-1.85-.87"/><path class="cls-2" d="M91.2,138.63l-1.31.93a3.7,3.7,0,0,0,.76,1.77,4,4,0,0,0,.22.67,3.24,3.24,0,0,1-.67,1.77,11.93,11.93,0,0,0-.59,1.93c.08.45.17.9.25,1.38v.33c.48,1,1,1.92,1.43,2.91.81,1,1.57,1.78,2.88,1.81.22-.17.47-.32.72-.5l.09-.21a9,9,0,0,0-.34-2.45l.25-.07c.28-.1.62.25.93.36a2.87,2.87,0,0,0,.44.17.52.52,0,0,0,.48,0c-.08-.4-.2-.77-.3-1.15.3-3.59.61-7.12.91-10.57.23-.27.48-.54.73-.8.08-.37.2-.74.31-1.12s0-.77.31-.95a8.52,8.52,0,0,0,.53.8c-.4,2.5-.79,5-1.18,7.59a9.6,9.6,0,0,1-.73.68l-.33.6c.17,3.1,2.77,6.44.2,9-.11.32-.2.65-.31,1-.22.77.53,1.79,1.06,2.52l.64.86a1,1,0,0,0,.76.42c0-.4.11-.78.17-1.18.06-.63.14-1.27.22-1.93a2.31,2.31,0,0,1,1.18.24c.19,0,.41.12.64.17v-19.8c-.09-.38-.11-.74-.17-1.07-.17-1.2-.28-2.38-.42-3.55a3.47,3.47,0,0,1,.42-.34l.17,0v-2l-.2-.47c0-.16,0-.28,0-.43a4.54,4.54,0,0,1,.23-.65V106.39l-.09.15c-.17.52-.36,1-.55,1.58a44,44,0,0,0-1.32,10.07c0,.15-.06.3-.06.43a22.26,22.26,0,0,1-.89,2.52c-.2.5-.42,1-.65,1.47,0-3,.06-6,.06-8.82.17-.43.32-.85.45-1.28.5-2.12,1-4.21,1.54-6.32a.91.91,0,0,1-.11-.3,1.79,1.79,0,0,0-.28.35,25.84,25.84,0,0,0-1.54,5c-.34,1.47-.59,3-.87,4.45,0,.45,0,.89,0,1.35-.22,3.07-1.48,5.82-2.52,8.81-.08.31-.16.58-.24.85s-.14.58-.23.86-.14.57-.2.85-.12.55-.16.82-.09.58-.14.85-.09.55-.12.83-.08.57-.11.86,0,.58-.08.88c-1.07,2.15-2.09,4.35-3.19,6.56a8,8,0,0,0,.92-.56m10.35,17c.39.1.81.19,1.23.32s.58.12.86.2c-.1.3-.61.48-.81.78a18.48,18.48,0,0,0-.78,1.9c.51,1.15,1,2.3,1.57,3.47.95,1.21,1.73,2,2,3.4-.19.58-.36,1.15-.56,1.75.14.48.28,1,.45,1.47a3.43,3.43,0,0,0,1.31,1.15l.25-.05c.29-1.85.54-3.67.82-5.49.11-2.11.06-4.23.19-6.27l0-.09V130.76a3.48,3.48,0,0,1-.62-1.47,11.54,11.54,0,0,1-.3-1.66c0-.54.17-.69.56-1.07l.14,0,.22,0v-22c-.62,2.09-.89,4.27-1.32,6.42v-5.65c0-.25-.08-.53-.13-.77,0-.43,0-.83.09-1.25s.21-.6,0-.93c-.51-.07-1-.15-1.46-.23-.23.13-.48.23-.7.36-.53.28-.37,1-.43,1.41s-.1.61-.16.92a1.83,1.83,0,0,1-.28-.49,4.73,4.73,0,0,0-.4-.37c-.58.1-.91.78-1.17,1.17s-.41.91-.64,1.33v20.87a5.26,5.26,0,0,0,.53-1.47,2.25,2.25,0,0,0-.06-.41c0-.22-.06-.42-.08-.62a22.5,22.5,0,0,1,.48-5.34c.14.58.28,1.17.41,1.77l.06.07c0,1.27-.06,2.55-.11,3.82s0,3.43-.86,4.58c-.14-.27-.26-.58-.37-.85v2a1.68,1.68,0,0,0,.47-.11l.06-.1c0,1.11,0,2.19,0,3.33,0,.35,0,.7,0,1.05s0,.62,0,.95a8.09,8.09,0,0,0-.06.85l-.1.2a4.79,4.79,0,0,1-.37-1.18Zm6.57,2.54a1.35,1.35,0,0,0,.15-.32l1,.18a2.62,2.62,0,0,1,.41,0v.21a6.19,6.19,0,0,0-.19.77c1,3,2,6.17,3.08,9.37.39.2.78.38,1.2.57l1.06-.29c2.51-3.95.5-9.27,1.5-13.53.15-.45.32-.9.46-1.35.59-3.38-.4-6.92.52-10.09.09-.28.18-.58.26-.88.22-2.09-.64-4.15-.92-6.21-.06-1.88-.14-3.74-.2-5.59a1.68,1.68,0,0,1-.19-.24,4.81,4.81,0,0,0-.53.45c-.31,2.27.39,4.64.28,7-.11,2.15-.71,4.28-1,6.46a4.39,4.39,0,0,1-.34-.5c-.81-4.79-.36-9.75-2-14.18a2.34,2.34,0,0,1-.13-.35v-.12l.05-.13a2.3,2.3,0,0,1,.53-.45c.14-.4.28-.8.4-1.2.27-7-1.32-13.77-2.53-20.06,0-.9,0-1.81-.08-2.71s-.13-1.73-1.23-2.15c-.31,0-.6.08-.92.1a3.08,3.08,0,0,0-.28.38c-.14.4-.28.78-.39,1.15v22a4.7,4.7,0,0,1,.53,0,2.84,2.84,0,0,1,.42,0l-.11,0a3.25,3.25,0,0,0-.11,1.42c0,.44.05.88.11,1.31,0,.67-.06,1.37-.08,2a2,2,0,0,1-.76-.62Z"/><path class="cls-2" d="M102.45,163.43l.16-.08c.09.22.2.43.28.64.34,1.34-.08,2.49.36,3.83.09.3.2.6.29.91a.36.36,0,0,1,0,.36l-.09,0a1.64,1.64,0,0,1-.26-.17,5.54,5.54,0,0,1-1.31-2.37c-.11-.58-.17-1.16-.25-1.75s-.19-1.15.2-1.53c.19,0,.42.13.62.18"/><path class="cls-2" d="M100.87,158.85c.21.48.4,1,.62,1.46l-.25-.1c-.19-.21-.41-.41-.58-.61a1.58,1.58,0,0,1-.4-.85l.61.1"/><path class="cls-2" d="M109.46,134.53c0,.16,0,.28,0,.43-.09,1.23-.33,2.41-.49,3.67,0,.33,0,.65-.07,1s0,.62,0,.92c0,1.21.09,2.43.13,3.62,0,.33,0,.68,0,1-.41,2.41-.79,4.9-1.19,7.39l0-.12c0-.25.06-.5.08-.75a55.72,55.72,0,0,0-.21-10.66,4.16,4.16,0,0,1-.09-.94,28.89,28.89,0,0,1,.22-5.82c.4-1.07,1.88-.28,1.68.27"/><path class="cls-2" d="M109.54,122.71c-.05-.29-.1-.6-.14-.93s-.05-.56-.08-.85,0-.55,0-.82v-.74c0-.8.16-1.63.24-2.45.2-1.78.39-3.54.59-5.25v-.53l-1-1.27-.21.12a.88.88,0,0,0-.11.42,1.69,1.69,0,0,0,0,.45,4.45,4.45,0,0,0-.05.5,25.22,25.22,0,0,1-.54,2.78c0,.15,0,.31-.08.45a45,45,0,0,0-.42,5.09,3.09,3.09,0,0,0,0,.51c.11,1.16.31,2.3.54,3.47.41-.32.85-.62,1.27-1"/><path class="cls-2" d="M115.42,183.3h7.88l-.22,4.51.2,0c1.59-3.26,4.94-4.88,10-4.88q9,0,9.9,5.45h.13c1.56-3.63,4.92-5.45,10.15-5.45,7.63,0,11.42,3.42,11.42,10.26v19.45H157V194.75c0-4.15-1.88-6.24-5.73-6.24-4.77,0-7.18,2.32-7.18,7v17.17h-7.87V194.48c0-2.44-.36-4-1.09-4.81s-2.25-1.16-4.59-1.16c-4.77,0-7.21,2.4-7.21,7.14v17h-7.88Zm-34.71,0h7.82l-.33,5,.2,0c1.54-3.55,4.95-5.32,10.3-5.32,7.77,0,11.64,3.25,11.64,9.69v20h-7.85V193.88l-.17-2.06c-.38-2.21-2.29-3.31-5.77-3.31-5.31,0-8,2.27-8,6.74v17.42H80.71Zm-4.78,0v5.33H63.3v14.75c0,2.73,1.11,4.1,3.42,4.1,2.55,0,3.85-1.63,3.85-4.93v-1.17h6.69v1.42a32.9,32.9,0,0,1-.14,3.52C76.7,210.8,73,213,65.92,213s-10.53-2.88-10.53-8.64V188.63H51.14V183.3h4.25v-6.57H63.3v6.57Z"/><path class="cls-2" d="M82,219.34h-.13a2.73,2.73,0,0,0-1.88.89V219.1a2.47,2.47,0,0,1,2-.75h0Zm0,4.45a3.75,3.75,0,0,1-.69.07,1.54,1.54,0,0,1-1-.35,1.28,1.28,0,0,1-.41-.95,1.16,1.16,0,0,1,.41-.87,2.36,2.36,0,0,1,1.14-.64l.57-.19v.63a2.55,2.55,0,0,0-.71.37.69.69,0,0,0,0,1.08.92.92,0,0,0,.61.21H82Zm14.35-5.32H97.6L95,223.88h-.36l-1.77-3.7-1.74,3.7h-.38l-2.66-5.41h1.27l1.55,3.22,1.53-3.22h.87l1.5,3.22ZM86,215.71h1.19v8.08H86Zm14.07,5.15v.63a2.36,2.36,0,0,0-.72.37.73.73,0,0,0,0,1.08.94.94,0,0,0,.61.21h.11v.64a3.77,3.77,0,0,1-.7.07,1.6,1.6,0,0,1-1-.35,1.32,1.32,0,0,1-.41-.95,1.19,1.19,0,0,1,.41-.87,2.42,2.42,0,0,1,1.13-.64Zm0-2.51v1H100a2.77,2.77,0,0,0-1.89.89V219.1a2.52,2.52,0,0,1,2-.75Zm-16,2.24v2.27c0,.16,0,.26.19.26a1.73,1.73,0,0,0,.66-.26v.63a3.76,3.76,0,0,1-.63.3,1.29,1.29,0,0,1-.5.09c-.52,0-.8-.17-.91-.54a2.32,2.32,0,0,1-.92.45v-.64a1.65,1.65,0,0,0,.94-.43v-1.55l-.8.27-.14.05v-.63l.94-.27v-.29a.88.88,0,0,0-.94-1v-1a2.46,2.46,0,0,1,1.53.44c.1.11.21.26.33.4a1.42,1.42,0,0,1,.19.49,6.44,6.44,0,0,1,.06.91m65.39-2.12h1.32l-4.2,8h-1.32l2-3.85L145,218.47h1.36l1.6,3Zm-14-2.76h1.18v3.46a2.36,2.36,0,0,1,1.83-.82,2.39,2.39,0,0,1,1.07.27,1.62,1.62,0,0,1,.7.74,3.27,3.27,0,0,1,.24,1.39v3h-1.19V220.5a1.24,1.24,0,0,0-.33-.93,1,1,0,0,0-.83-.38,1.67,1.67,0,0,0-.75.19,2.37,2.37,0,0,0-.74.61v3.8H135.5Zm-5.23,3.6,2.21-1.94v1.1h1.88v.95h-1.88V222c0,.59.28.91.86.91a3,3,0,0,0,1.32-.39v1a3.15,3.15,0,0,1-1.47.34,2.16,2.16,0,0,1-1.34-.41,1.1,1.1,0,0,1-.28-.3,1.17,1.17,0,0,1-.2-.42,4.24,4.24,0,0,1-.08-1v-2.34h-1Zm-2-.84h1.18v5.32h-1.18Zm.58-2.24a.74.74,0,0,1,.5.17.56.56,0,0,1,0,.89.73.73,0,0,1-.5.16.66.66,0,0,1-.47-.16.59.59,0,0,1-.22-.45.61.61,0,0,1,.22-.44.67.67,0,0,1,.47-.17m-2.71,2.24h1.27l-2.62,5.41h-.39l-1.77-3.7-1.71,3.7h-.39l-2.65-5.41h1.25l1.57,3.22,1.52-3.22h.85l1.53,3.22Zm-16.51,4.95v-1.14a7,7,0,0,0,1,.5,2.81,2.81,0,0,0,.86.19,1,1,0,0,0,.64-.18.39.39,0,0,0,.27-.36.53.53,0,0,0-.16-.4,4.27,4.27,0,0,0-.75-.44,4.57,4.57,0,0,1-1.49-1,1.32,1.32,0,0,1-.36-.89,1.12,1.12,0,0,1,.53-1,2.28,2.28,0,0,1,1.38-.4,4,4,0,0,1,1.79.44v1.05a3.82,3.82,0,0,0-1.71-.58,1.29,1.29,0,0,0-.56.12.49.49,0,0,0-.21.35.58.58,0,0,0,.19.37,4.47,4.47,0,0,0,.67.4l.44.22c1,.5,1.46,1.07,1.46,1.65a1.3,1.3,0,0,1-.55,1.1,2.55,2.55,0,0,1-1.47.41,6.55,6.55,0,0,1-1-.09c-.28-.08-.6-.21-1-.37m-1.86-4.95h1.32l-4.23,8h-1.3l2-3.85-2.3-4.18h1.33l1.61,3Zm-7.66,5.32v-.64a1.72,1.72,0,0,0,.93-.43v-1.55l-.79.27-.14.05v-.63l.93-.27v-.29a.87.87,0,0,0-.93-1v-1a2.47,2.47,0,0,1,1.52.44c.1.11.22.26.33.4a1.42,1.42,0,0,1,.19.49,4.32,4.32,0,0,1,.06.91v2.27c0,.16,0,.26.19.26a1.62,1.62,0,0,0,.66-.26v.63a4.15,4.15,0,0,1-.62.3,1.38,1.38,0,0,1-.51.09c-.53,0-.8-.17-.91-.54a2.42,2.42,0,0,1-.91.45m54.38-5.34v.93h0a2,2,0,0,0-1.38.52,1.66,1.66,0,0,0-.56,1.27,1.56,1.56,0,0,0,.56,1.23,2.14,2.14,0,0,0,1.42.5v1h0a3.34,3.34,0,0,1-2.25-.78,2.37,2.37,0,0,1-.91-1.93,2.44,2.44,0,0,1,.91-1.93,3.36,3.36,0,0,1,2.26-.79m8.28,5.34v-.67a3.07,3.07,0,0,1-.86.57,2.63,2.63,0,0,1-.94.19,2.3,2.3,0,0,1-1.06-.25,1.63,1.63,0,0,1-.71-.69,3,3,0,0,1-.25-1.42v-3.05h1.19v3a2.06,2.06,0,0,0,.25,1.19,1.18,1.18,0,0,0,1,.31,1.7,1.7,0,0,0,1.42-.71v-3.81h1.18v5.32Zm-8.28.09v-1a2.08,2.08,0,0,0,1.42-.5,1.52,1.52,0,0,0,.58-1.23,1.58,1.58,0,0,0-.58-1.27,2.5,2.5,0,0,0-1.42-.52v-.93h0a3.29,3.29,0,0,1,2.23.79,2.48,2.48,0,0,1,.91,1.94,2.38,2.38,0,0,1-.91,1.94,3.55,3.55,0,0,1-2.27.76"/><polyline class="cls-3" points="230.76 98.05 232.1 97.38 231.88 96.94 230.54 97.6"/></svg>